<svg width="414" height="896" viewBox="0 0 414 896" fill="none" xmlns="http://www.w3.org/2000/svg">
<defs>
<linearGradient id="paint0_linear" x1="-113.373" y1="716.319" x2="202.62" y2="968.041" gradientUnits="userSpaceOnUse">
<stop stop-color="#17E0FC"/>
<stop offset="1" stop-color="#1034FA"/>
</linearGradient>
<linearGradient id="paint1_linear" x1="451.5" y1="-51" x2="451.5" y2="174" gradientUnits="userSpaceOnUse">
<stop stop-color="#17E0FC"/>
<stop offset="1" stop-color="#1034FA"/>
</linearGradient>
<linearGradient id="paint2_linear" x1="249.048" y1="681.954" x2="333.987" y2="749.617" gradientUnits="userSpaceOnUse">
<stop stop-color="#17E0FC"/>
<stop offset="1" stop-color="#1034FA"/>
</linearGradient>
</defs>
<path fill-rule="evenodd" clip-rule="evenodd" d="M-114.465 717.706C-86.9626 684.197 -39.5077 676.053 3.58481 671.152C41.5028 666.84 80.0799 673.112 113.376 691.794C143.476 708.682 156.563 742.363 178.293 769.178C203.245 799.969 245.593 820.989 249.975 860.361C254.476 900.795 228.854 939.46 200.492 968.603C173.848 995.98 136.548 1008.48 98.9817 1015.51C64.0744 1022.04 27.3842 1022.4 -4.6236 1006.97C-35.0166 992.327 -49.5676 959.912 -70.8035 933.697C-95.0119 903.811 -129.834 880.681 -137.452 842.996C-146.079 800.319 -142.072 751.344 -114.465 717.706Z" fill="url(#paint0_linear)"/>
<path fill-rule="evenodd" clip-rule="evenodd" d="M456.997 -50.8076C481.629 -48.007 489.793 -16.0774 507.806 0.942619C522.557 14.881 543.452 21.709 552.8 39.717C563.148 59.6504 566.814 82.9519 561.734 104.826C556.37 127.92 545.089 152.04 524.133 163.155C503.853 173.912 479.935 159.391 456.997 160.379C432.414 161.438 405.44 183.56 385.519 169.127C365.603 154.697 379.468 121.839 371.639 98.5345C363.682 74.8466 334.092 57.0889 339.703 32.7394C345.263 8.6078 376.85 2.72124 397.03 -11.6525C416.962 -25.8495 432.677 -53.5728 456.997 -50.8076Z" fill="url(#paint1_linear)"/>
<path fill-rule="evenodd" clip-rule="evenodd" d="M248.755 682.327C256.147 673.32 268.903 671.131 280.486 669.814C290.679 668.654 301.048 670.34 309.998 675.362C318.089 679.902 321.607 688.955 327.448 696.163C334.155 704.439 345.538 710.089 346.716 720.673C347.926 731.541 341.038 741.934 333.415 749.768C326.253 757.127 316.227 760.487 306.129 762.376C296.746 764.132 286.884 764.227 278.28 760.082C270.11 756.145 266.199 747.432 260.491 740.385C253.984 732.352 244.624 726.135 242.576 716.005C240.257 704.533 241.334 691.369 248.755 682.327Z" fill="url(#paint2_linear)"/>
</svg>
