<svg id="Layer_2" data-name="Layer 2" xmlns="http://www.w3.org/2000/svg" viewBox="0 0 465.11 624.55"><path d="M424,617c-1.62-1.43-1.29-3.08-1.3-4.59,0-6.25-.15-12.5,0-18.74a7.79,7.79,0,0,0-3.08-6.67,98.71,98.71,0,0,1-18.34-21.18,66.31,66.31,0,0,1-8.59-20A475.63,475.63,0,0,0,379,499.52c-1.64-4.56-3.74-8.95-5.59-13.44-.72-1.75-1.42-3.53-2-5.35-7.73-25.55-15.54-51.08-24.85-76.12-2.6-7-5.52-13.85-8.44-20.7a34.55,34.55,0,0,0-4-7.3c-5.44-7.27-6.53-15.56-6-24.21a87,87,0,0,1,2.71-16.93c2.78-10.59,6.17-21,11.56-30.56a89.12,89.12,0,0,1,14.87-20,64.19,64.19,0,0,1,24.93-15.56c11.17-3.76,22.34-7.51,33.47-11.37,6.87-2.38,13.76-4.76,20.49-7.51,9.63-3.92,19.13-8.15,28.66-12.31a48.7,48.7,0,0,0,7.45-3.69c4.83-3.16,10.21-4.17,15.77-4.71a485.22,485.22,0,0,1,71.22-1.36c8.66.44,17.34.74,26,1.46,13.82,1.16,27.69,2.37,41.09,6.14,17.85,5,35.51,10.71,52.46,18.36a155.44,155.44,0,0,1,20.94,11.52,258.06,258.06,0,0,1,41.54,33.74,119,119,0,0,1,20.32,26.92A92.24,92.24,0,0,1,772.15,359a51.79,51.79,0,0,1-1.93,21.52,151,151,0,0,1-9.83,24.6,340.11,340.11,0,0,1-17.49,31.33c-1.29,2.06-2.73,4-4.15,6-16.16,22.59-31.57,45.66-45.09,69.94-2.95,5.31-5.6,10.77-8.49,16.11a15.15,15.15,0,0,0-1.68,7.48,164,164,0,0,1-10.26,56.52,85.31,85.31,0,0,1-4.73,10.4,24.74,24.74,0,0,1-4,5.39c-2.21,2.31-4.87,3.28-8,1.54a9.51,9.51,0,0,0-1.79-.53c-.77,2.62-.36,5.19-.4,7.69s.06,5.21.14,7.81.22,5.16.35,8c-.74-.17-1.31-.14-1.62-.41C635.82,617.65,615.82,608,594.34,601a261.67,261.67,0,0,0-39.83-9.8A123.3,123.3,0,0,0,540,589.85a198.48,198.48,0,0,0-33.77,1.23A228.39,228.39,0,0,0,452,604.86c-8.07,3.16-15.92,6.86-23.86,10.31C426.7,615.78,425.31,616.42,424,617Zm229.32-61.58c1.64,0,1.75-1.51,2.23-2.48A411.11,411.11,0,0,0,674,510a104.87,104.87,0,0,0,5.45-22.69,65,65,0,0,1,2.73-11.61c1.57-5.13,3.31-10.22,5.29-15.21q11.38-28.76,23-57.42c7.12-17.68,14.56-35.23,20.73-53.27,1.62-4.75,2.83-9.64,4.14-14.48a15.52,15.52,0,0,0-.45-9.22,12,12,0,0,0-1.58-2.49c-2.62.31-3.8,2.12-4.79,3.9a52.46,52.46,0,0,1-6.19,8.31,79.66,79.66,0,0,0-9.64,14.16c-2.21,4.13-4.25,8.34-6.33,12.53-3.7,7.44-7.09,15.07-11.14,22.32a162.46,162.46,0,0,0-12.75,30.09,490,490,0,0,0-14.36,58.51,244.37,244.37,0,0,0-4.22,35.07,78.89,78.89,0,0,1-1.64,11.82,285.17,285.17,0,0,1-7.53,29.18c-.59,2-.85,4-1.25,6-.24.19-.56.34-.68.59s.29.42.45.63c.1-.13.27-.27.27-.4A5.79,5.79,0,0,0,653.35,555.41Zm-98.17-39.59,1.09-.15c.06-1.67.17-3.35.17-5,.07-20.12.07-40.23.17-60.34.22-45.78,1-91.54,4.26-137.22,1.07-14.71,2.56-29.36,5.65-43.8a44.56,44.56,0,0,0,.57-14,25.55,25.55,0,0,0-3.43-10.82c-2.7-4.43-6.6-6.56-11.8-5.83a22.06,22.06,0,0,0-5.5,1.43c-9.26,3.9-15.9,10.36-19,20.09a72.51,72.51,0,0,0-2,7.52c-1.77,8.5-2.39,17.15-3.13,25.79-.8,9.32-1.38,18.67-2.46,28a146.47,146.47,0,0,0-.3,28.55,448.21,448.21,0,0,0,7.24,49.88c7.3,37.61,16.72,74.72,27,111.6C554.13,513,554.69,514.38,555.18,515.82Zm-62.44,13.49c1-1.41,0-2.4-.54-3.39-3.68-7.08-7.36-14.16-11.16-21.17a75.91,75.91,0,0,1-7.25-18.89c-1.66-7.08-3.15-14.22-4.3-21.41-2.8-17.48-4.15-35.14-5.08-52.8-.92-17.5-1.54-35-1.32-52.55,0-1.91.08-3.82.19-5.72.44-7.27,1.13-14.53,1.32-21.81.29-10.94-.17-21.85-2.48-32.61A48.74,48.74,0,0,0,458,286.68c-3.73-7.16-9.44-11.91-17.37-13.72-8.7-2-16.85,0-24.75,3.6a5.08,5.08,0,0,0-2.67,3.66,13.16,13.16,0,0,0,.32,7.68,23,23,0,0,0,5.36,8.83,97.28,97.28,0,0,0,8.81,8.06,27.22,27.22,0,0,1,8.38,10.44,90.86,90.86,0,0,1,3.88,10.19c2.83,9.33,4.16,19,5.1,28.63,1.39,14.34,2.06,28.72,2.35,43.12q.33,16.4,1.07,32.78c.38,8,.7,16,3.26,23.64A196.91,196.91,0,0,0,459.24,473c8.66,19,19.58,36.7,30.95,54.16a8.53,8.53,0,0,0,1.25,1.65A3.88,3.88,0,0,0,492.74,529.31ZM435.46,562c1-.28,1.68-.83,1.19-1.85a46.6,46.6,0,0,0-2.33-4,386.21,386.21,0,0,1-21.76-39.66,130.17,130.17,0,0,1-8.41-22.91q-9-35.79-18.1-71.59c-1.19-4.7-2.38-9.42-3.15-14.2-2.41-15.09-3.32-30.34-4-45.58-.74-15.94-1.15-31.9-1.72-47.85a35.56,35.56,0,0,0-.46-6.21,34.39,34.39,0,0,0-2.47-7.88c-1.92-4-5.37-5.76-9.82-5.38a14.81,14.81,0,0,0-3.58.6c-7.6,2.67-13.88,7.09-18.06,14.12a20.14,20.14,0,0,0-1.8,17,26.16,26.16,0,0,0,7.33,11.19c4,3.71,7.47,7.81,9.53,12.87A75.54,75.54,0,0,1,361.88,363c2.27,10.32,4.17,20.73,6.21,31.1A647,647,0,0,0,389.24,475c7,20.91,15.61,41.17,26.75,60.28a178.3,178.3,0,0,0,15.82,23.19C432.88,559.77,433.71,561.39,435.46,562Zm164.3-80.44c1.14-2.42.82-4.12.86-5.75a246.94,246.94,0,0,1,3-35.19c4-23.47,12.5-45,26.86-64.1,5-6.64,10.46-12.94,16-19.1A110.23,110.23,0,0,0,662.37,335c7.36-13.87,12.32-28.61,15.87-43.86a19.17,19.17,0,0,0,.21-2.67c-2.32.17-3.61,1.7-5.07,2.81-11.37,8.7-21,19.16-29.76,30.39-7.7,9.84-14.63,20.22-21.33,30.75-5,7.9-9.76,16-15.1,23.67a48.33,48.33,0,0,0-8,21.16,209.19,209.19,0,0,0-2,26.94c-.24,14.06.52,28.08,1.29,42.1C598.72,471.05,599.27,475.85,599.76,481.54Z" transform="translate(-307.44 -227.72)" style="fill:#e8ebf6"/><path d="M412.27,790.79l1.77,1.62q5.2,4.7,10.43,9.39a16.73,16.73,0,0,0,8.79,4.11c7.91,1.25,15.78,2.26,23.78.83a29,29,0,0,0,13.3-5.48,42.08,42.08,0,0,1,11.84-6.41c9-3.26,18.09-6.06,27.77-6.17a29.19,29.19,0,0,1,9.77,1.11,14.24,14.24,0,0,1,9.62,9.45c4,12.17,1.85,23.11-7.55,31.94a75.65,75.65,0,0,1-38.32,19.76,79,79,0,0,1-38.53-2.45q-4.71-1.46-9.44-2.86a28.89,28.89,0,0,1-17.09-13.58,51.75,51.75,0,0,1-6-17.07,92.45,92.45,0,0,1-1.15-22.29,5.49,5.49,0,0,1,.38-1.47C411.65,791.09,411.88,791,412.27,790.79Z" transform="translate(-307.44 -227.72)" style="fill:#e8ebf6"/><path d="M668.39,790.88c.29.27.5.37.51.49,1.09,11.34.4,22.52-3.45,33.33a45.54,45.54,0,0,1-3.54,7.51,28.44,28.44,0,0,1-18.14,13.73c-5.35,1.4-10.58,3.34-16,4.48-21.42,4.51-41.32.77-59.47-11.61a84.59,84.59,0,0,1-8.26-6.31c-9.65-8.5-12.82-19-9.46-31.46,2-7.48,6.7-11.38,14.41-12.16a50.61,50.61,0,0,1,18.06,1.36,169.27,169.27,0,0,1,16.36,5.1,35.6,35.6,0,0,1,9.55,5.17c6,4.79,12.94,6.47,20.32,6.91,6.79.4,13.48-.67,20.13-1.94a12.67,12.67,0,0,0,5.9-3.15C659.62,798.58,663.9,794.81,668.39,790.88Z" transform="translate(-307.44 -227.72)" style="fill:#e8ebf6"/><path d="M664.26,739.5c2.12-.78,3.74-1.38,5.36-2,13.22-4.72,26.42-9.51,39.16-15.45,4.86-2.27,9.58-4.87,14.2-7.6a24.75,24.75,0,0,0,5-4.49,1.84,1.84,0,0,0-.26-2.78,25.28,25.28,0,0,0-3.79-2.73c-5.75-3.2-11.47-6.5-17.36-9.44-8.68-4.34-17.43-8.56-26.28-12.53-5.17-2.33-7.34-6.69-8.73-11.58-1-3.61.77-6.44,4.36-7.77a22.6,22.6,0,0,1,4.54-1.09,11.28,11.28,0,0,1,7.93,1.6c6.47,4,13.08,7.86,19.7,11.65,3.76,2.15,7.59,4.18,11.49,6.06,7.49,3.62,15,7.12,22.58,10.63a32.73,32.73,0,0,1,10.32,7.78,20.15,20.15,0,0,1,2.48,3.33c3.5,5.91,1.86,12.58-4,16.29-.87.55-1.82,1-2.75,1.47q-31.05,15.83-62.08,31.68A38.27,38.27,0,0,1,675.28,756a11.78,11.78,0,0,1-1.56.16c-6.25.31-9.94-2.86-10.22-9.1C663.4,744.7,664,742.29,664.26,739.5Z" transform="translate(-307.44 -227.72)" style="fill:#e8ebf6"/><path d="M389.43,759.55c-3.61-.09-7.84-1.52-11.89-3.6q-19.43-10-38.88-19.86L316.9,725c-1.24-.63-2.5-1.22-3.67-1.94-6-3.69-7.54-10.26-3.68-16.16a29.45,29.45,0,0,1,12.12-10.34c5.93-2.86,11.86-5.71,17.87-8.4a187.44,187.44,0,0,0,21.57-11.41c4.73-2.9,9.59-5.57,14.31-8.48,4.52-2.79,9-1.91,13.39,0a5.09,5.09,0,0,1,2.95,6.51c-1.5,4.88-3.73,9.08-8.87,11.47-11.94,5.54-23.72,11.41-35.49,17.31a106.33,106.33,0,0,0-10.69,6.4c-2.49,1.64-2.63,3.46-.45,5.57a28.18,28.18,0,0,0,5.75,4.41c4.85,2.68,9.77,5.25,14.8,7.55C369,733,381.48,737.61,394.06,742c5.25,1.84,5.51,2.19,5.59,7.78a20.35,20.35,0,0,1-.08,2.07c-.44,4.9-3.14,7.44-8.11,7.66Z" transform="translate(-307.44 -227.72)" style="fill:#e8ebf6"/><path d="M478.78,743.27c-16.46.05-29.73-12-30.85-28.35a28,28,0,0,1,9.69-23.7c9-8,19.48-10.37,30.95-6.55s18.45,12,20.59,23.91C512.17,725.39,498.91,743.27,478.78,743.27Zm-10.69-30.43a7.87,7.87,0,0,0,2.8,6.15c4.13,3.75,11.6,3.7,15.71-.06a7.51,7.51,0,0,0,.09-11.41,12.1,12.1,0,0,0-16.05.09A7.63,7.63,0,0,0,468.09,712.84Z" transform="translate(-307.44 -227.72)" style="fill:#e8ebf6"/><path d="M597.66,743.27c-15.58-.12-29.39-10.86-31.09-27.56a27.53,27.53,0,0,1,3.24-16.08c5.85-10.91,15.28-16.56,27.45-16.59s21.79,5.49,27.52,16.46c10.23,19.61-3.59,41.38-23.48,43.5C599.75,743.17,598.2,743.23,597.66,743.27Zm-.41-21.4a12.84,12.84,0,0,0,7.61-2.63,7.49,7.49,0,0,0,.44-11.74,12.1,12.1,0,0,0-16,.12,7.44,7.44,0,0,0,.29,11.4A12.74,12.74,0,0,0,597.25,721.87Z" transform="translate(-307.44 -227.72)" style="fill:#e8ebf6"/><path d="M509,666.08c-.5-1.45-.94-2.93-1.5-4.36-2.72-7-7.81-9.91-15.16-8.7a24,24,0,0,0-14.08,7c-9.43,9.77-20.61,9.89-31.13,1.47a12.66,12.66,0,0,1-3.82-4c.67-.93,1.23-.61,1.79-.16a70.31,70.31,0,0,0,6.07,4.87c8.34,5.38,16.3,4.82,23.92-1.54a29.57,29.57,0,0,0,2.65-2.48c5.27-5.61,12-7.3,19.35-7,4.27.18,7.52,2.33,9.93,5.81C509.09,660,509.87,662.65,509,666.08Z" transform="translate(-307.44 -227.72)" style="fill:#e8ebf6"/><path d="M566.25,758.08c.06.46.31,1,.15,1.38a52.19,52.19,0,0,1-9,15.06c-.23.26-.48.5-.72.75-6.5,6.54-13.93,7.26-21.53,2.07a37,37,0,0,1-8.83-8.7c-1.95-2.64-3.73-5.41-5.48-8.19a2.68,2.68,0,0,1,.11-2.54c.77,1.09,1.51,2.19,2.31,3.26,2.47,3.32,4.76,6.82,7.52,9.89a32.47,32.47,0,0,0,7.18,5.88c5.49,3.34,10.85,2.71,15.83-1.42a29,29,0,0,0,6.56-8c1.47-2.54,2.72-5.2,4.13-7.78C564.83,759.08,564.94,758,566.25,758.08Z" transform="translate(-307.44 -227.72)" style="fill:#e8ebf6"/><path d="M653.35,555.41a5.79,5.79,0,0,1,.16.91c0,.13-.17.27-.27.4-.16-.21-.5-.52-.45-.63s.44-.4.67-.59Z" transform="translate(-307.44 -227.72)" style="fill:#e8ebf6"/></svg>