<svg id="Layer_2" data-name="Layer 2" xmlns="http://www.w3.org/2000/svg" viewBox="0 0 716.3 520.34"><g id="_3uXBD9.tif" data-name="3uXBD9.tif"><path d="M897.42,689.48c-.44-18.19-.66-36.45-2.67-54.47A843.63,843.63,0,0,0,875.3,526.94c-13.63-55.48-31.88-109.25-58.44-160-7.32-14-15.58-26.58-29.93-35.28-18.69-11.35-37.7-22-57.66-30.79-23.45-10.29-47.51-19-73.7-19.88-4.94-.16-10.11.7-15-1.14h-3c-6,3.08-9.55,8.08-8.77,14.67.75,6.35,7.18,6.48,11.83,7.83,20.7,6.09,41,13,60.73,22,25.38,11.62,47.49,28.1,67.54,43.53-127.07-78-329.28-78.73-459.74,1.11,10.86-6.57,20.37-15,30.8-22.13,31.28-21.5,65.6-36.12,102.33-45.5,10.31-2.62,12.24-10.09,5.15-18-1.38-1.54-3.3-2.32-4.95-3.49h-3.05c-12.46,2-25.26,1.14-37.57,4.12-39.33,9.56-75.63,26.16-109.47,48.14-8.23,5.36-16.06,11.15-21.19,20.22a605.26,605.26,0,0,0-45.26,101.85,849.44,849.44,0,0,0-33.42,131.4c-4.14,23.89-7.78,47.8-8.59,72.13-.44,13.31-.44,26.68-2.07,39.93v4.56a48,48,0,0,0,8.45,12.43c25,26.83,55.29,45.91,88.48,60.62C314.13,790.89,351,800.11,390,800.17c3.72,0,7.09-.9,9.51-3.87,6.88-8.43,13.5-17.08,19.6-26.1,3.2-4.73,2-8.66-3-11.3a76.38,76.38,0,0,0-8.35-3.64c-15.2-5.83-29.55-13.44-43.82-21.15-24.07-13.05-44.57-30.81-65.13-48.48,17.52,14.13,37.84,23.64,58.25,32.71,56.75,25.24,117,33.94,178.52,35.57,18,.48,35.92-1.4,53.85-2.83,36.08-2.9,71.37-9.64,105.43-21.77,30.63-10.92,60.28-23.83,85.24-42.71-17.94,15.26-35.6,30.86-56.07,42.87a420.51,420.51,0,0,1-56.58,27.86c-9.64,3.86-10.6,7.73-4.41,16.07,5.44,7.3,10.81,14.67,16.53,21.77,2.39,3,5.32,5.17,9,4.89,14.12-1.06,28.39-.38,42.36-3.11,51.44-10,98.34-30.18,138.91-63.59,10.82-8.9,22.14-17.88,28.37-31.18v-4.56C896.6,695,897.5,692.2,897.42,689.48ZM464,627.14c-20.41,14.42-45.74,12.7-64.53-3.8-27.33-24-29.57-71.46-4.62-97.94s63.71-23.48,84.25,6.74c8.2,12.08,12.1,25.48,12.16,42.39C490.39,594.54,482.9,613.81,464,627.14Zm220.07-7.32c-24.15,24.9-61.61,22.12-81.92-6C593.13,601.28,589,587.24,588.65,571c.49-16.65,5.44-32.53,17.66-45.54,23.58-25.11,58.07-24.27,80.53,1.79C708.72,552.65,707.43,595.76,684.11,619.82Z" transform="translate(-181.85 -279.83)" style="fill:#e8ebf6"/></g></svg>