<svg id="Layer_2" data-name="Layer 2" xmlns="http://www.w3.org/2000/svg" viewBox="0 0 420.2 406.52"><path d="M461.94,589.42c-1.58,2.23-3.09,3.76-2.85,4.12a18.5,18.5,0,0,0,4.34,4.53c.3.22,2.9-1.87,2.8-2.05A69,69,0,0,0,461.94,589.42Zm15.86,17.94c1.67-1.61,2.7-2.62,3.73-3.62-1.73-1.22-3.34-2.78-5.26-3.47-.69-.24-2.13,1.65-3.23,2.56Zm33.31-7.78L506,603.92c1.23,1,2.63,3,3.66,2.83,1.78-.3,3.33-2,5-3Zm-16.69,2.14-4.44,4c1.29,1.06,2.7,3.1,3.82,2.94,1.74-.23,3.28-1.95,4.9-3Zm-37.79-17.91a50.24,50.24,0,0,0-5.07-4.45c-.17-.12-2.51,2.22-2.36,2.46a17.84,17.84,0,0,0,3.88,4.25C453.36,586.29,454.82,585,456.63,583.81Zm-8.49-11.34a58.93,58.93,0,0,0-5.2-3.89c-.16-.09-2,1.88-1.83,2.07a13.92,13.92,0,0,0,3.41,3.6C444.91,574.51,446.21,573.45,448.14,572.47Z" transform="translate(-358.23 -265.5)" style="fill:#e8ebf6"/><path d="M607.85,566.19c8.45-1.66,16.95-3,25.26-5,21.4-5.34,40-15.22,52.79-34,9.7-14.25,14.32-30.31,15.51-47.24a169.53,169.53,0,0,0-.39-31.3c-1.68-14.49-8.17-27.27-17.67-38.37a6.11,6.11,0,0,1-1.45-6.6c5.07-16.52,3.64-32.84-2.41-48.79-.58-1.53-3.35-3.12-5.12-3.15-10-.16-19.31,3.11-28.14,7.42-7.59,3.72-14.76,8.29-22.25,12.2a9.91,9.91,0,0,1-6.3,1.11,206.28,206.28,0,0,0-98.72,0,9.85,9.85,0,0,1-6.7-1.37c-13.78-8.48-27.8-16.3-44.05-19-1.63-.28-3.32-.21-4.95-.5-4.12-.71-5.92,1.36-7.09,5.05-5,15.9-6.32,31.83-1.35,48a5.88,5.88,0,0,1-1,4.73c-18.81,21.93-22.06,47.58-18.29,75,2.37,17.21,7.43,33.36,18.38,47.2,13.57,17.15,32.16,25.77,52.84,30.6,7.22,1.68,14.57,2.76,22.44,4.22a50.23,50.23,0,0,0-12.46,26c-.19,1-1.89,2.13-3.11,2.64-23.43,9.85-44.27,3.32-57.83-18-6.75-10.61-15.51-18.73-28.25-21.22a30.06,30.06,0,0,0-10.76.4c-3.29.59-3.81,3.09-1.73,5.59a22.7,22.7,0,0,0,5.5,5c11.35,6.82,18.56,17,23.45,28.93,7.95,19.38,23.26,28,43.11,29.24,9.36.59,18.84-.63,28.77-1.06,0,13,.36,26.6-.16,40.18-.24,6.34-7.47,9.48-14.82,7.09A194,194,0,0,1,451.4,647c-50.72-34.57-81.87-82.07-90.88-142.81-15.52-104.59,49.41-202.55,152-231,108.35-30,221.85,31.16,256.16,138.15C803,518.45,743.83,635.15,637,670.85c-10.4,3.48-16.41-.87-16.4-11.93,0-14.81.1-29.61.11-44.42C620.72,588.19,620.59,587.76,607.85,566.19Z" transform="translate(-358.23 -265.5)" style="fill:#e8ebf6"/><path d="M461.94,589.42a69,69,0,0,1,4.29,6.6c.1.18-2.5,2.27-2.8,2.05a18.5,18.5,0,0,1-4.34-4.53C458.85,593.18,460.36,591.65,461.94,589.42Z" transform="translate(-358.23 -265.5)" style="fill:#e8ebf6"/><path d="M477.8,607.36,473,602.83c1.1-.91,2.54-2.8,3.23-2.56,1.92.69,3.53,2.25,5.26,3.47C480.5,604.74,479.47,605.75,477.8,607.36Z" transform="translate(-358.23 -265.5)" style="fill:#e8ebf6"/><path d="M511.11,599.58l3.55,4.14c-1.65,1.08-3.2,2.73-5,3-1,.18-2.43-1.81-3.66-2.83Z" transform="translate(-358.23 -265.5)" style="fill:#e8ebf6"/><path d="M494.42,601.72l4.28,3.9c-1.62,1.1-3.16,2.82-4.9,3-1.12.16-2.53-1.88-3.82-2.94Z" transform="translate(-358.23 -265.5)" style="fill:#e8ebf6"/><path d="M456.63,583.81c-1.81,1.19-3.27,2.48-3.55,2.26a17.84,17.84,0,0,1-3.88-4.25c-.15-.24,2.19-2.58,2.36-2.46A50.24,50.24,0,0,1,456.63,583.81Z" transform="translate(-358.23 -265.5)" style="fill:#e8ebf6"/><path d="M448.14,572.47c-1.93,1-3.23,2-3.62,1.78a13.92,13.92,0,0,1-3.41-3.6c-.14-.19,1.67-2.16,1.83-2.07A58.93,58.93,0,0,1,448.14,572.47Z" transform="translate(-358.23 -265.5)" style="fill:#e8ebf6"/></svg>