<svg id="Layer_2" data-name="Layer 2" xmlns="http://www.w3.org/2000/svg" viewBox="0 0 500.17 346.69"><g id="HR0wgZ.tif"><path d="M540.84,713.35c-38.54-.64-73.36-.55-108.12-2-26.39-1.11-52.89-2.89-79-6.77C321,699.69,301,677.38,295.92,644.63a532,532,0,0,1-6-82.07c.06-27-.09-54,1.32-80.89a439.43,439.43,0,0,1,7.05-57.35c4.59-24.57,27.3-45.57,53.84-49.09,25.52-3.4,51.3-5.33,77-6.53,30.27-1.4,60.59-1.53,90.9-1.81,25.81-.24,51.64-.49,77.44.31,35.59,1.11,71.16,3,106.72,5a153.37,153.37,0,0,1,29.56,4.34c25.79,6.64,41.32,23.61,46.93,49.59,5.57,25.79,7.16,52,8.43,78.28a724.6,724.6,0,0,1-2.31,106.75c-1.41,14.2-3.68,28.33-5.93,42.43-4.22,26.47-28.84,47.6-53.86,50.85-25.53,3.31-51.3,5.4-77,6.47C612.4,712.47,574.75,712.65,540.84,713.35Zm-49-96.38,125.3-77.18-125.3-77.15Z" transform="translate(-289.92 -366.65)" style="fill:#e8ebf6"/></g></svg>